#!OML:ASF \\Waltz\H\Terrain\Patient Classification 1\Animal2\Wednesday\Animal2.ASF
:FULLY-SPECIFIED
:DEGREES
2078
root -6.773 17.5829 -12.8544 1.02901 29.6191 -1.50109
lowerback 2.77846 2.80196 3.99608
upperback -9.03497 4.42251 1.96294
thorax -11.0879 1.94534 -0.662718
lowerneck 16.5722 15.9431 18.7461
upperneck -4.11315 24.3275 -19.1815
head 0.852129 12.9122 -8.74741
rclavicle 3.61788e-014 -1.59028e-015
rhumerus -48.276 -34.8646 -11.5575
rradius 62.8563
rwrist 26.1652
rhand 32.7644 26.735
rfingers 7.12502
rthumb 56.1736 9.48071
lclavicle 3.61788e-014 -1.59028e-015
lhumerus -53.6098 20.6744 19.1725
lradius 58.531
lwrist 0.841592
lhand 33.3537 32.8253
lfingers 7.12502
lthumb 56.6942 -310.337
rfemur 0.107219 -6.77733 19.2499
rtibia 20.7106
rfoot -25.7991 -10.2907
rtoes 27.0264
lfemur -20.1049 -14.6968 -5.74837
ltibia 21.6178
lfoot -12.0238 -7.33964
ltoes -40.6617
2079
root -6.77816 17.5814 -12.8428 0.558647 29.5753 -2.20796
lowerback 2.7913 2.8067 4.46381
upperback -8.9058 4.48431 2.20594
thorax -10.9375 1.95227 -0.665293
lowerneck 16.2305 16.0469 18.495
upperneck -4.22223 24.3503 -19.0956
head 0.835042 12.9049 -8.66062
rclavicle 5.02925e-014 9.54166e-015
rhumerus -47.8076 -35.3564 -11.3235
rradius 62.6665
rwrist 27.3628
rhand 36.5094 28.5992
rfingers 7.12502
rthumb 59.4442 14.2483
lclavicle 5.02925e-014 9.54166e-015
lhumerus -53.4405 20.8004 18.8186
lradius 58.508
lwrist 1.02545
lhand 34.8673 35.9263
lfingers 7.12502
lthumb 58.0215 -308.372
rfemur 0.392694 -6.46431 20.0163
rtibia 20.3917
rfoot -25.7325 -10.5855
rtoes 27.1072
lfemur -20.0466 -14.5212 -5.0607
ltibia 21.7956
lfoot -12.2711 -7.36943
ltoes -41.0574
2080
root -6.77785 17.5774 -12.8366 0.134613 29.6161 -2.79063
lowerback 2.89503 2.77983 4.99157
upperback -8.85515 4.50663 2.30852
thorax -10.9174 1.92356 -0.853272
lowerneck 16.1678 15.9742 18.5683
upperneck -4.35264 24.2376 -19.1119
head 0.796273 12.8437 -8.68592
rclavicle 7.49418e-014 1.11319e-014
rhumerus -47.4998 -35.3399 -11.3626
rradius 62.6646
rwrist 28.2098
rhand 39.9032 29.6174
rfingers 7.12502
rthumb 62.3149 18.5211
lclavicle 7.49418e-014 1.11319e-014
lhumerus -53.185 20.8557 18.2725
lradius 58.5162
lwrist 1.18618
lhand 35.2006 38.3834
lfingers 7.12502
lthumb 58.3118 -306.178
rfemur 0.786293 -6.3675 20.6047
rtibia 19.9633
rfoot -25.5465 -10.7536
rtoes 27.155
lfemur -20.0297 -14.4702 -4.52301
ltibia 22.026
lfoot -12.5175 -7.26338
ltoes -41.704
2081
root -6.77525 17.5757 -12.8295 -0.11741 29.651 -3.10497
lowerback 2.96297 2.78853 5.29693
upperback -8.81961 4.55042 2.3433
thorax -10.8999 1.92084 -0.992003
lowerneck 16.4339 16.305 17.5819
upperneck -5.23948 24.4263 -18.6317
head 0.349315 12.9269 -8.50341
rclavicle 2.34566e-014 -6.36111e-015
rhumerus -48.1254 -31.9763 -12.628
rradius 63.7362
rwrist 26.0757
rhand 40.339 28.6365
rfingers 7.12502
rthumb 62.6756 18.01
lclavicle 2.34566e-014 -6.36111e-015
lhumerus -52.9088 20.9822 17.7838
lradius 58.5008
lwrist 0.835271
lhand 34.9767 39.7586
lfingers 7.12502
lthumb 58.1169 -304.625
rfemur 1.13999 -6.21253 20.93
rtibia 19.55
rfoot -25.4163 -10.8607
rtoes 27.3977
lfemur -20.0144 -14.5009 -4.24385
ltibia 22.2137
lfoot -12.4795 -7.43464
ltoes -40.9599
2082
root -6.77059 17.5774 -12.823 -0.220801 29.6609 -3.2758
lowerback 2.94966 2.86771 5.46473
upperback -8.80544 4.67574 2.40031
thorax -10.8641 1.97194 -1.03638
lowerneck 15.529 15.7971 18.4077
upperneck -3.96415 23.9033 -18.7857
head 0.882612 12.6378 -8.52231
rclavicle -8.94531e-014 -3.65764e-014
rhumerus -48.4782 -30.882 -12.6115
rradius 64.4001
rwrist 25.7821
rhand 41.3729 28.9918
rfingers 7.12502
rthumb 63.523 19.533
lclavicle -8.94531e-014 -3.65764e-014
lhumerus -52.6137 21.1308 17.5085
lradius 58.4688
lwrist 0.0849907
lhand 34.7705 40.5942
lfingers 7.12502
lthumb 57.9371 -303.628
rfemur 1.36184 -6.19417 21.0758
rtibia 19.2076
rfoot -25.4042 -10.6562
rtoes 28.1579
lfemur -20.0257 -14.4633 -4.11051
ltibia 22.3229
lfoot -12.3937 -7.60352
ltoes -40.5561
2083
root -6.76132 17.583 -12.8218 0.0620317 29.7289 -2.94811
lowerback 2.77685 2.92165 5.26609
upperback -8.80146 4.71176 2.33965
thorax -10.7599 2.00702 -0.985812
lowerneck 15.4472 16.2455 16.2361
upperneck -4.78154 23.9896 -17.3318
head 0.226657 12.6237 -7.90713
rclavicle 1.0138e-014 5.56597e-015
rhumerus -48.4126 -30.7951 -12.2817
rradius 64.5972
rwrist 26.1225
rhand 41.9751 29.435
rfingers 7.12502
rthumb 64.0108 20.6927
lclavicle 1.0138e-014 5.56597e-015
lhumerus -52.3804 21.4902 17.127
lradius 58.4541
lwrist -1.01124
lhand 34.3643 41.1087
lfingers 7.12502
lthumb 57.582 -302.801
rfemur 1.4797 -6.51775 20.673
rtibia 18.8059
rfoot -25.257 -10.2964
rtoes 28.3441
lfemur -20.2179 -14.5301 -4.44999
ltibia 22.4672
lfoot -12.386 -7.4893
ltoes -41.0361
2084
root -6.75632 17.587 -12.8166 0.10222 29.7428 -2.85503
lowerback 2.75967 2.95308 5.23754
upperback -8.78131 4.74713 2.32295
thorax -10.7249 2.02688 -0.990334
lowerneck 15.5251 16.2769 15.6698
upperneck -5.14955 23.8952 -16.7315
head -0.0526982 12.5515 -7.72002
rclavicle 2.76311e-014 4.77083e-015
rhumerus -48.0234 -31.3275 -11.8884
rradius 64.4393
rwrist 26.456
rhand 41.8687 29.4557
rfingers 7.12502
rthumb 63.925 20.5849
lclavicle 2.76311e-014 4.77083e-015
lhumerus -52.1926 21.9354 16.5266
lradius 58.5063
lwrist -2.40373
lhand 34.0543 41.2312
lfingers 7.12502
lthumb 57.3103 -302.444
rfemur 1.6289 -6.61679 20.5646
rtibia 18.6147
rfoot -25.1568 -10.4082
rtoes 27.6673
lfemur -20.2002 -14.5469 -4.57087
ltibia 22.4772
lfoot -12.3689 -7.4461
ltoes -40.7788
2085
root -6.76108 17.5827 -12.8039 -0.542147 29.641 -3.64817
lowerback 3.084 2.97628 5.90495
upperback -8.73409 4.8761 2.50233
thorax -10.8344 2.03814 -1.19778
lowerneck 15.784 15.6739 18.0048
upperneck -4.4612 23.6313 -18.3508
head 0.544651 12.4904 -8.43823
rclavicle 2.06736e-014 2.78299e-014
rhumerus -47.4509 -32.2896 -11.4809
rradius 64.1034
rwrist 26.8554
rhand 41.9092 29.1068
rfingers 7.12502
rthumb 63.9577 20.2848
lclavicle 2.06736e-014 2.78299e-014
lhumerus -52.0104 22.2898 15.8532
lradius 58.6446
lwrist -3.55791
lhand 33.2024 40.993
lfingers 7.12502
lthumb 56.5607 -302.061
rfemur 1.9755 -6.28518 21.432
rtibia 18.4845
rfoot -25.0391 -11.0621
rtoes 26.8632
lfemur -19.9025 -14.3551 -3.83141
ltibia 22.4576
lfoot -12.4036 -7.61145
ltoes -40.2193
2086
root -6.75139 17.5915 -12.8096 0.348585 30.0143 -2.84207
lowerback 2.6136 2.88361 5.32981
upperback -8.80113 4.64764 2.2804
thorax -10.6538 1.97132 -1.06737
lowerneck 16.5111 15.522 19.2029
upperneck -5.12901 23.7249 -20.2873
head 0.650914 12.6518 -9.23456
rclavicle 5.46658e-014 1.59028e-014
rhumerus -46.6175 -33.7069 -11.087
rradius 63.6142
rwrist 27.4444
rhand 41.8779 29.0524
rfingers 7.12502
rthumb 63.9324 20.1926
lclavicle 5.46658e-014 1.59028e-014
lhumerus -51.8996 22.7141 15.3803
lradius 58.8153
lwrist -3.97085
lhand 30.722 40.1739
lfingers 7.12502
lthumb 54.3548 -301.231
rfemur 1.59932 -7.12609 20.5221
rtibia 18.3572
rfoot -24.8607 -10.6092
rtoes 26.8343
lfemur -20.4893 -14.6171 -4.55314
ltibia 22.4144
lfoot -12.2234 -7.66947
ltoes -39.9846
